<mxfile host="www.draw.io" modified="2020-03-08T21:12:20.151Z" agent="Mozilla/5.0 (Windows NT 10.0; Win64; x64; rv:73.0) Gecko/20100101 Firefox/73.0" etag="w2A1Z4WgfH3zIR6anvSv" version="12.8.1" type="github">
  <diagram id="kNcc-ozZJjw88QSZvHIv" name="Page-1">
    <mxGraphModel dx="2105" dy="592" grid="1" gridSize="10" guides="1" tooltips="1" connect="1" arrows="1" fold="1" page="1" pageScale="1" pageWidth="827" pageHeight="1169" math="0" shadow="0">
      <root>
        <mxCell id="0" />
        <mxCell id="1" parent="0" />
        <mxCell id="pbbmq9tgI4HYfDyTQR8Z-2" style="edgeStyle=orthogonalEdgeStyle;rounded=0;orthogonalLoop=1;jettySize=auto;html=1;endArrow=block;endFill=0;" parent="1" source="pbbmq9tgI4HYfDyTQR8Z-1" edge="1">
          <mxGeometry relative="1" as="geometry">
            <mxPoint x="720" y="160" as="targetPoint" />
          </mxGeometry>
        </mxCell>
        <mxCell id="pbbmq9tgI4HYfDyTQR8Z-8" style="edgeStyle=orthogonalEdgeStyle;rounded=0;orthogonalLoop=1;jettySize=auto;html=1;entryX=0.5;entryY=0;entryDx=0;entryDy=0;" parent="1" source="pbbmq9tgI4HYfDyTQR8Z-1" target="pbbmq9tgI4HYfDyTQR8Z-3" edge="1">
          <mxGeometry relative="1" as="geometry" />
        </mxCell>
        <mxCell id="pbbmq9tgI4HYfDyTQR8Z-9" style="edgeStyle=orthogonalEdgeStyle;rounded=0;orthogonalLoop=1;jettySize=auto;html=1;entryX=0.5;entryY=0;entryDx=0;entryDy=0;endArrow=block;endFill=0;" parent="1" source="pbbmq9tgI4HYfDyTQR8Z-1" target="pbbmq9tgI4HYfDyTQR8Z-17" edge="1">
          <mxGeometry relative="1" as="geometry">
            <mxPoint x="580" y="160" as="targetPoint" />
          </mxGeometry>
        </mxCell>
        <mxCell id="pbbmq9tgI4HYfDyTQR8Z-10" style="edgeStyle=orthogonalEdgeStyle;rounded=0;orthogonalLoop=1;jettySize=auto;html=1;entryX=0.5;entryY=0;entryDx=0;entryDy=0;" parent="1" source="pbbmq9tgI4HYfDyTQR8Z-1" target="pbbmq9tgI4HYfDyTQR8Z-15" edge="1">
          <mxGeometry relative="1" as="geometry">
            <mxPoint x="230" y="160" as="targetPoint" />
          </mxGeometry>
        </mxCell>
        <mxCell id="pbbmq9tgI4HYfDyTQR8Z-11" style="edgeStyle=orthogonalEdgeStyle;rounded=0;orthogonalLoop=1;jettySize=auto;html=1;entryX=0.5;entryY=0;entryDx=0;entryDy=0;" parent="1" source="pbbmq9tgI4HYfDyTQR8Z-1" target="pbbmq9tgI4HYfDyTQR8Z-16" edge="1">
          <mxGeometry relative="1" as="geometry">
            <mxPoint x="420" y="160" as="targetPoint" />
          </mxGeometry>
        </mxCell>
        <mxCell id="pbbmq9tgI4HYfDyTQR8Z-1" value="login.java" style="rounded=1;whiteSpace=wrap;html=1;" parent="1" vertex="1">
          <mxGeometry x="340" y="40" width="120" height="60" as="geometry" />
        </mxCell>
        <mxCell id="pbbmq9tgI4HYfDyTQR8Z-25" style="edgeStyle=orthogonalEdgeStyle;rounded=0;orthogonalLoop=1;jettySize=auto;html=1;entryX=0.5;entryY=0;entryDx=0;entryDy=0;endArrow=classicThin;endFill=1;" parent="1" source="pbbmq9tgI4HYfDyTQR8Z-3" target="pbbmq9tgI4HYfDyTQR8Z-24" edge="1">
          <mxGeometry relative="1" as="geometry" />
        </mxCell>
        <mxCell id="pbbmq9tgI4HYfDyTQR8Z-3" value="adminMain.java" style="rounded=1;whiteSpace=wrap;html=1;" parent="1" vertex="1">
          <mxGeometry x="20" y="160" width="120" height="60" as="geometry" />
        </mxCell>
        <mxCell id="pbbmq9tgI4HYfDyTQR8Z-27" style="edgeStyle=orthogonalEdgeStyle;rounded=0;orthogonalLoop=1;jettySize=auto;html=1;entryX=0.5;entryY=0;entryDx=0;entryDy=0;endArrow=classic;endFill=1;" parent="1" source="pbbmq9tgI4HYfDyTQR8Z-15" target="pbbmq9tgI4HYfDyTQR8Z-26" edge="1">
          <mxGeometry relative="1" as="geometry">
            <Array as="points">
              <mxPoint x="230" y="320" />
              <mxPoint x="340" y="320" />
            </Array>
          </mxGeometry>
        </mxCell>
        <mxCell id="pbbmq9tgI4HYfDyTQR8Z-15" value="&lt;div&gt;userMain.java&lt;/div&gt;" style="rounded=1;whiteSpace=wrap;html=1;" parent="1" vertex="1">
          <mxGeometry x="170" y="160" width="120" height="60" as="geometry" />
        </mxCell>
        <mxCell id="pbbmq9tgI4HYfDyTQR8Z-31" style="edgeStyle=orthogonalEdgeStyle;rounded=0;orthogonalLoop=1;jettySize=auto;html=1;endArrow=classicThin;endFill=1;entryX=0.544;entryY=-0.044;entryDx=0;entryDy=0;entryPerimeter=0;" parent="1" source="pbbmq9tgI4HYfDyTQR8Z-16" target="pbbmq9tgI4HYfDyTQR8Z-32" edge="1">
          <mxGeometry relative="1" as="geometry">
            <mxPoint x="640" y="340" as="targetPoint" />
            <Array as="points">
              <mxPoint x="400" y="290" />
              <mxPoint x="638" y="290" />
              <mxPoint x="638" y="310" />
              <mxPoint x="649" y="310" />
            </Array>
          </mxGeometry>
        </mxCell>
        <mxCell id="pbbmq9tgI4HYfDyTQR8Z-16" value="firmMain.java" style="rounded=1;whiteSpace=wrap;html=1;" parent="1" vertex="1">
          <mxGeometry x="340" y="160" width="120" height="60" as="geometry" />
        </mxCell>
        <mxCell id="pbbmq9tgI4HYfDyTQR8Z-22" style="edgeStyle=orthogonalEdgeStyle;rounded=0;orthogonalLoop=1;jettySize=auto;html=1;entryX=1;entryY=0;entryDx=0;entryDy=0;fillColor=#f8cecc;strokeColor=#b85450;" parent="1" source="pbbmq9tgI4HYfDyTQR8Z-17" target="pbbmq9tgI4HYfDyTQR8Z-1" edge="1">
          <mxGeometry relative="1" as="geometry">
            <Array as="points">
              <mxPoint x="550" y="40" />
            </Array>
          </mxGeometry>
        </mxCell>
        <mxCell id="pbbmq9tgI4HYfDyTQR8Z-17" value="firmRegister.java" style="rounded=1;whiteSpace=wrap;html=1;" parent="1" vertex="1">
          <mxGeometry x="500" y="160" width="120" height="60" as="geometry" />
        </mxCell>
        <mxCell id="pbbmq9tgI4HYfDyTQR8Z-23" style="edgeStyle=orthogonalEdgeStyle;rounded=0;orthogonalLoop=1;jettySize=auto;html=1;entryX=1;entryY=0.25;entryDx=0;entryDy=0;fillColor=#f8cecc;strokeColor=#b85450;" parent="1" source="pbbmq9tgI4HYfDyTQR8Z-20" target="pbbmq9tgI4HYfDyTQR8Z-1" edge="1">
          <mxGeometry relative="1" as="geometry">
            <Array as="points">
              <mxPoint x="710" y="55" />
            </Array>
          </mxGeometry>
        </mxCell>
        <mxCell id="pbbmq9tgI4HYfDyTQR8Z-20" value="userRegister.java" style="rounded=1;whiteSpace=wrap;html=1;" parent="1" vertex="1">
          <mxGeometry x="650" y="160" width="120" height="60" as="geometry" />
        </mxCell>
        <mxCell id="pbbmq9tgI4HYfDyTQR8Z-24" value="" style="rounded=0;whiteSpace=wrap;html=1;" parent="1" vertex="1">
          <mxGeometry x="-140" y="340" width="310" height="120" as="geometry" />
        </mxCell>
        <mxCell id="pbbmq9tgI4HYfDyTQR8Z-26" value="" style="rounded=0;whiteSpace=wrap;html=1;" parent="1" vertex="1">
          <mxGeometry x="190" y="340" width="300" height="120" as="geometry" />
        </mxCell>
        <mxCell id="pbbmq9tgI4HYfDyTQR8Z-28" value="firmAdmin.java" style="rounded=1;whiteSpace=wrap;html=1;" parent="1" vertex="1">
          <mxGeometry x="-140" y="365" width="100" height="60" as="geometry" />
        </mxCell>
        <mxCell id="pbbmq9tgI4HYfDyTQR8Z-29" value="userAdmin.java" style="rounded=1;whiteSpace=wrap;html=1;" parent="1" vertex="1">
          <mxGeometry x="-32.5" y="365" width="95" height="60" as="geometry" />
        </mxCell>
        <mxCell id="pbbmq9tgI4HYfDyTQR8Z-30" value="otherAdmin.java" style="rounded=1;whiteSpace=wrap;html=1;" parent="1" vertex="1">
          <mxGeometry x="75" y="365" width="95" height="60" as="geometry" />
        </mxCell>
        <mxCell id="pbbmq9tgI4HYfDyTQR8Z-32" value="" style="rounded=0;whiteSpace=wrap;html=1;" parent="1" vertex="1">
          <mxGeometry x="485" y="327.5" width="310" height="150" as="geometry" />
        </mxCell>
        <mxCell id="pbbmq9tgI4HYfDyTQR8Z-33" value="mainMenu.java" style="rounded=1;whiteSpace=wrap;html=1;" parent="1" vertex="1">
          <mxGeometry x="190" y="357.5" width="90" height="60" as="geometry" />
        </mxCell>
        <mxCell id="pbbmq9tgI4HYfDyTQR8Z-34" value="otherUser.java" style="rounded=1;whiteSpace=wrap;html=1;" parent="1" vertex="1">
          <mxGeometry x="390" y="357.5" width="95" height="60" as="geometry" />
        </mxCell>
        <mxCell id="pbbmq9tgI4HYfDyTQR8Z-35" value="cart.java" style="rounded=1;whiteSpace=wrap;html=1;" parent="1" vertex="1">
          <mxGeometry x="290" y="357.5" width="90" height="60" as="geometry" />
        </mxCell>
        <mxCell id="pbbmq9tgI4HYfDyTQR8Z-36" value="otherFirm.java" style="rounded=1;whiteSpace=wrap;html=1;" parent="1" vertex="1">
          <mxGeometry x="705" y="357.5" width="95" height="60" as="geometry" />
        </mxCell>
        <mxCell id="pbbmq9tgI4HYfDyTQR8Z-37" value="orderFirm.java" style="rounded=1;whiteSpace=wrap;html=1;" parent="1" vertex="1">
          <mxGeometry x="597.5" y="357.5" width="95" height="60" as="geometry" />
        </mxCell>
        <mxCell id="pbbmq9tgI4HYfDyTQR8Z-38" value="myMenu.java" style="rounded=1;whiteSpace=wrap;html=1;" parent="1" vertex="1">
          <mxGeometry x="490" y="357.5" width="100" height="60" as="geometry" />
        </mxCell>
        <mxCell id="pbbmq9tgI4HYfDyTQR8Z-39" value="comments.java" style="rounded=1;whiteSpace=wrap;html=1;" parent="1" vertex="1">
          <mxGeometry x="597.5" y="417.5" width="95" height="60" as="geometry" />
        </mxCell>
      </root>
    </mxGraphModel>
  </diagram>
</mxfile>
